<?xml version="1.0" encoding="iso-8859-1"?>
<!-- Uploaded to: SVG Repo, www.svgrepo.com, Generator: SVG Repo Mixer Tools -->
<svg fill="#000000" height="800px" width="800px" version="1.1" id="Layer_1" xmlns="http://www.w3.org/2000/svg" xmlns:xlink="http://www.w3.org/1999/xlink" 
	 viewBox="0 0 512 512" xml:space="preserve">
<g>
	<g>
		<path d="M437.381,127.238V45.166H331.666v28.695L256,35.655L0,164.914l48,95.063l26.619-13.441v229.808h362.763V246.538
			l26.619,13.441L512,164.914L437.381,127.238z M364.326,77.826h40.395v32.921l-40.395-20.396V77.826z M290.025,443.686h-68.05
			V382.35h68.05V443.686z M322.686,443.686V349.69H189.315v93.996h-82.036V230.048l148.72-75.093l148.722,75.093v213.638H322.686z
			 M449.566,216.104l-193.567-97.736L62.434,216.104l-18.558-36.756L256,72.242l212.125,107.106L449.566,216.104z"/>
	</g>
</g>
<g>
	<g>
		<path d="M139.433,230.369v96.772h96.771v-96.772H139.433z M203.544,294.481h-31.451v-31.453h31.451V294.481z"/>
	</g>
</g>
<g>
	<g>
		<path d="M275.795,230.369v96.772h96.771v-96.772H275.795z M339.906,294.481h-31.451v-31.453h31.451V294.481z"/>
	</g>
</g>
</svg>